<svg version="1.1" id="Layer_1" xmlns="http://www.w3.org/2000/svg" xmlns:xlink="http://www.w3.org/1999/xlink" x="0px" y="0px"
	 width="100%" viewBox="0 0 1024 1024" enable-background="new 0 0 1024 1024" xml:space="preserve">
<path fill="#000000" opacity="1.000000" stroke="none" 
	d="
M733.576782,431.512726 
	C752.585510,463.811523 752.846924,497.156128 739.272217,530.638062 
	C724.482422,567.117065 696.327637,588.138000 658.144226,596.100586 
	C653.783325,597.010010 649.221069,597.290527 644.751770,597.293945 
	C549.091431,597.367615 453.429260,597.692810 357.771759,597.174011 
	C327.391815,597.009277 303.378723,582.324402 284.482758,559.044922 
	C269.508514,540.596924 262.212463,519.180176 262.937103,495.637421 
	C263.923737,463.582275 277.688263,438.364441 306.175140,422.256042 
	C313.646545,418.031219 321.814850,415.677063 330.493164,415.684174 
	C384.655731,415.728546 438.818420,415.768463 492.980560,415.957977 
	C497.178467,415.972656 499.709747,414.484192 501.935211,411.043182 
	C510.331818,398.060333 522.069336,391.251556 537.888672,391.574860 
	C562.578857,392.079498 580.692993,414.208374 575.899170,438.466400 
	C572.383789,456.255157 561.444702,466.801086 543.960693,470.772827 
	C528.504822,474.283875 512.686157,467.932556 503.049866,453.989441 
	C500.643524,450.507568 498.008575,449.324707 493.956421,449.331909 
	C443.126556,449.422150 392.294769,449.616547 341.467499,449.238373 
	C326.503510,449.127014 305.003784,460.758759 300.440796,482.513397 
	C299.794861,485.593109 299.486694,488.749146 299.126801,491.881897 
	C298.734222,495.298828 300.353577,496.674561 303.771698,496.670288 
	C342.769043,496.621552 381.766571,496.606476 420.763794,496.694580 
	C424.410309,496.702820 426.046509,494.723236 427.621948,491.949829 
	C441.290985,467.887238 475.944550,465.517792 493.390106,488.800415 
	C509.200470,509.900665 501.133911,543.749390 468.890381,551.180603 
	C451.887787,555.099243 436.615326,547.964783 427.451874,533.119141 
	C425.512207,529.976685 423.286469,528.944641 419.751099,528.955017 
	C394.586914,529.028809 369.422058,528.984985 344.257812,528.881042 
	C333.764191,528.837708 323.271759,528.539124 312.778229,528.400269 
	C311.155548,528.378784 309.203247,527.975586 308.239929,529.725037 
	C307.160797,531.684814 308.647308,533.241882 309.720184,534.650452 
	C320.867859,549.286316 335.839874,557.455322 353.761475,560.688721 
	C362.369171,562.241699 371.040100,561.705505 379.676239,561.585449 
	C464.993988,560.400146 550.321838,561.343079 635.635376,560.450073 
	C674.732849,560.040894 704.940308,537.118958 710.233459,495.304565 
	C713.988098,465.644623 701.251221,442.150879 676.176270,425.725433 
	C662.958923,417.067322 648.221558,412.728668 632.552185,411.345703 
	C628.914001,411.024628 625.256958,410.768829 621.658203,410.179932 
	C613.632080,408.866608 608.877380,403.622253 605.732788,396.518402 
	C598.240295,379.592133 588.213623,364.413116 574.994568,351.349152 
	C554.053223,330.653534 528.860046,320.830322 499.551239,322.104187 
	C454.493073,324.062531 421.552490,346.858551 396.638336,382.995514 
	C394.274292,386.424530 392.184235,390.048767 389.300232,393.079468 
	C383.986664,398.663086 377.604828,401.459412 369.953278,399.112061 
	C362.267761,396.754303 358.068756,390.752106 355.880219,383.424316 
	C354.780518,379.742188 356.750519,376.208374 358.236328,372.892090 
	C366.404083,354.661896 378.354370,339.136475 393.168518,325.910950 
	C414.980530,306.437988 439.564026,291.226196 468.270416,284.922729 
	C513.199280,275.057068 554.485779,283.882294 590.903259,312.833008 
	C608.874695,327.119720 623.414612,344.373047 634.741272,364.246796 
	C638.150452,370.228607 642.311584,373.543701 649.185242,374.844086 
	C666.653320,378.148743 683.170044,384.155670 697.960693,394.362732 
	C712.280579,404.244873 724.186768,416.411682 733.576782,431.512726 
M547.513245,423.093109 
	C545.841797,420.958984 543.753418,419.357666 541.279053,418.266144 
	C534.778809,415.398529 526.783813,418.034882 523.590210,424.087982 
	C520.044250,430.808838 522.603882,438.238190 530.180359,443.216095 
	C536.195923,447.168457 543.151672,446.109436 547.402771,440.376221 
	C551.381714,435.010101 551.481812,429.378052 547.513245,423.093109 
M450.215881,503.780334 
	C449.412384,505.591431 448.363373,507.335419 447.847107,509.224976 
	C445.405396,518.161987 455.177032,528.303040 463.948334,526.032776 
	C469.869232,524.500305 474.091003,520.114868 474.657898,514.908020 
	C475.367950,508.386719 472.440063,502.838654 466.843506,500.100281 
	C460.635284,497.062592 456.065582,497.937592 450.215881,503.780334 
z"/>
<path fill="#000000" opacity="1.000000" stroke="none" 
	d="
M669.274414,665.001221 
	C669.300476,694.993042 669.331604,724.485352 669.341736,753.977661 
	C669.344116,760.729309 668.767456,761.272888 661.849854,761.299255 
	C657.017822,761.317688 652.184509,761.227112 647.354004,761.312683 
	C643.344360,761.383667 641.631714,759.521423 641.653809,755.545410 
	C641.719360,743.715515 641.520691,731.882629 641.722229,720.056030 
	C641.794189,715.830261 640.513000,714.024902 636.082520,714.041870 
	C624.096130,714.087830 612.098999,714.748291 600.119751,713.570679 
	C596.437805,713.208801 595.215576,715.476990 595.217896,718.888062 
	C595.226135,730.717957 595.151672,742.548035 595.076233,754.377747 
	C595.036926,760.533142 594.288025,761.266968 588.145081,761.292908 
	C582.813232,761.315430 577.481140,761.264893 572.149475,761.299866 
	C569.033081,761.320312 567.733765,759.877075 567.621887,756.735535 
	C566.364441,721.426147 566.694885,686.107910 566.862854,650.789185 
	C566.881653,646.848572 568.483887,644.884766 572.471863,644.894409 
	C578.136780,644.908081 583.802307,644.902344 589.466553,644.826965 
	C593.535034,644.772827 595.053528,646.845215 595.049011,650.733337 
	C595.036316,661.563293 595.281616,672.394592 595.179260,683.223022 
	C595.140808,687.282288 596.546936,688.837097 600.712402,688.762451 
	C612.205750,688.556641 623.708008,688.538940 635.200867,688.756958 
	C639.915222,688.846375 641.816040,687.205444 641.714600,682.392395 
	C641.497009,672.066284 641.852295,661.726807 641.562439,651.404297 
	C641.428162,646.622192 643.141907,644.643066 647.860168,644.792542 
	C652.687500,644.945435 657.523743,644.783936 662.355225,644.840149 
	C668.066833,644.906555 669.117676,645.933960 669.208069,651.504578 
	C669.278320,655.836121 669.254089,660.169250 669.274414,665.001221 
z"/>
<path fill="#000000" opacity="1.000000" stroke="none" 
	d="
M457.437531,724.538574 
	C469.066223,740.087402 491.111603,742.488953 505.938507,730.095764 
	C506.704895,729.455200 507.427368,728.761353 508.161377,728.082703 
	C514.768188,721.973328 514.681274,722.047485 520.425110,728.681763 
	C522.590881,731.183350 525.207703,733.308594 527.709839,735.501648 
	C532.018494,739.278320 532.219788,740.518982 528.127808,744.750427 
	C519.809814,753.351807 509.718323,759.267761 498.087738,761.677673 
	C475.648438,766.327332 454.918365,762.883423 438.041779,746.038086 
	C424.285339,732.307129 420.744141,714.951355 422.087585,696.354309 
	C423.023621,683.396851 427.735565,671.747498 436.617767,662.053406 
	C451.745300,645.543213 470.935364,640.604187 492.458466,643.090210 
	C505.947357,644.648254 517.518616,650.648926 527.477234,659.804993 
	C531.752930,663.736084 531.753784,665.033386 527.400635,668.956055 
	C523.687622,672.301819 519.752197,675.414307 516.192139,678.911987 
	C513.262207,681.790649 511.035645,681.505310 508.167297,678.764099 
	C501.332092,672.231873 493.334991,668.232727 483.592010,668.141357 
	C466.530792,667.981384 452.492218,680.843323 451.383301,697.966125 
	C450.780823,707.268982 451.700928,716.279602 457.437531,724.538574 
z"/>
<path fill="#000000" opacity="1.000000" stroke="none" 
	d="
M357.658325,702.999756 
	C357.744263,686.015198 357.818268,669.530579 357.920227,653.046204 
	C357.962158,646.266907 358.591217,645.661377 365.376953,645.639465 
	C369.872803,645.624939 374.390503,645.916443 378.858734,645.565430 
	C383.852295,645.173157 385.322479,646.955261 385.477936,652.029602 
	C386.426575,682.991028 386.160522,713.940308 385.362793,744.894348 
	C385.264160,748.721680 385.226410,752.558044 385.371124,756.382141 
	C385.510925,760.076721 383.783783,761.450928 380.254303,761.381897 
	C374.761414,761.274353 369.261902,761.234253 363.771118,761.384338 
	C359.826416,761.492065 358.744873,759.638489 358.539886,755.929810 
	C357.574280,738.460083 357.755737,720.979065 357.658325,702.999756 
z"/>
</svg>